<?xml version="1.0" encoding="utf-8"?>
<!-- Generator: Adobe Illustrator 15.0.0, SVG Export Plug-In . SVG Version: 6.00 Build 0)  -->
<!DOCTYPE svg PUBLIC "-//W3C//DTD SVG 1.1//EN" "http://www.w3.org/Graphics/SVG/1.1/DTD/svg11.dtd">
<svg version="1.1" id="Layer_1" xmlns="http://www.w3.org/2000/svg" xmlns:xlink="http://www.w3.org/1999/xlink" x="0px" y="0px"
	 width="1052px" height="1052px" viewBox="0 0 1052 1052" enable-background="new 0 0 1052 1052" xml:space="preserve">
<rect fill="#FFFFFF" width="1052" height="1052"/>
<ellipse fill="#0069D6" cx="526.012" cy="526.684" rx="462.25" ry="457.05"/>
<path fill="#FFFFFF" d="M642.2,290.4c0,64.1-51.9,116-116,116c-64.101,0-116-51.9-116-116s51.899-116,116-116
	C590.3,174.4,642.2,226.3,642.2,290.4z M624.3,437.8c12.7,0,24.2,1.601,34.4,4.9c18.899,6,33.5,17.2,45,30
	c19.899,22.2,36.3,54.1,54,86c16.899,30.399,36.399,63.1,36,104c-0.4,40.7-19.9,70.1-40,92c-27.2,29.7-63.2,65.7-118,65
	c-27.601-0.4-53.4-15.9-49-48c3.399-24.8,26.1-35.3,40-52c-68.3,7.1-97.8-27.5-124-69c-10.8-17.101-17.7-42-39-46
	c-42.5-8-37.4,40.899-27,68c3.399,8.899,14.7,24.8,14,32c-1.2,12.3-25.5,17.3-39,20c-17.4,3.399-38,2.7-51,8
	c5.1,10.8,18.7,15.6,30,20c11.4,4.399,24.6,8.1,38,11c30.2,6.5,62.6,2.899,93,6c28,2.899,60,27.8,44,65
	c-11.7,27.2-46.9,41.899-85,44c-65.2,3.6-143.6-29.9-177-60c-27.6-24.9-48.5-65.3-45-114c3.4-47.4,26.4-94,45-131
	c23.3-46.3,43.9-96,85-121c13.4-8.2,32.7-14.9,55-14.9H624.3z M694.2,624.4c0-44.2-35.8-80-80-80s-80,35.8-80,80
	c0,44.199,35.8,80,80,80S694.2,668.5,694.2,624.4z"/>
<path fill="#0069D6" d="M1212.273,261.538c0.059-0.661,0.053-1.022,0.053-1.022c0-8.836-7.164-16-16-16c-8.838,0-16,7.164-16,16
	c0,0.514,0.031,1.032,0.078,1.551c0.006,0.063,0.012,0.126,0.02,0.188c1.273,12.799,15.902,26.636,15.902,26.636
	c10.279-9.755,13.955-18.467,15.27-23.588C1211.971,264.104,1212.191,262.839,1212.273,261.538z"/>
</svg>
