<?xml version="1.0" encoding="utf-8"?>
<!-- Generator: Adobe Illustrator 15.0.0, SVG Export Plug-In . SVG Version: 6.00 Build 0)  -->
<!DOCTYPE svg PUBLIC "-//W3C//DTD SVG 1.1//EN" "http://www.w3.org/Graphics/SVG/1.1/DTD/svg11.dtd">
<svg version="1.1" id="Layer_1" xmlns="http://www.w3.org/2000/svg" xmlns:xlink="http://www.w3.org/1999/xlink" x="0px" y="0px"
	 width="1052px" height="1052px" viewBox="0 0 1052 1052" enable-background="new 0 0 1052 1052" xml:space="preserve">
<rect fill="#FFFFFF" width="1052" height="1052"/>
<ellipse fill="#0069D6" cx="526.012" cy="526.684" rx="462.25" ry="457.05"/>
<path fill="#FFFFFF" d="M642.2,290.4c0,64.1-51.9,116-116,116c-64.101,0-116-51.9-116-116s51.899-116,116-116
	C590.3,174.4,642.2,226.3,642.2,290.4z M624.3,437.8c12.7,0,24.2,1.601,34.4,4.9c18.899,6,33.5,17.2,45,30
	c19.899,22.2,36.3,54.1,54,86c16.899,30.399,36.399,63.1,36,104c-0.4,40.7-19.9,70.1-40,92c-27.2,29.7-63.2,65.7-118,65
	c-27.601-0.4-53.4-15.9-49-48c3.399-24.8,26.1-35.3,40-52c-68.3,7.1-97.8-27.5-124-69c-10.8-17.101-17.7-42-39-46
	c-42.5-8-37.4,40.899-27,68c3.399,8.899,14.7,24.8,14,32c-1.2,12.3-25.5,17.3-39,20c-17.4,3.399-38,2.7-51,8
	c5.1,10.8,18.7,15.6,30,20c11.4,4.399,24.6,8.1,38,11c30.2,6.5,62.6,2.899,93,6c28,2.899,60,27.8,44,65
	c-11.7,27.2-46.9,41.899-85,44c-65.2,3.6-143.6-29.9-177-60c-27.6-24.9-48.5-65.3-45-114c3.4-47.4,26.4-94,45-131
	c23.3-46.3,43.9-96,85-121c13.4-8.2,32.7-14.9,55-14.9H624.3z M694.2,624.4c0-44.2-35.8-80-80-80s-80,35.8-80,80
	c0,44.199,35.8,80,80,80S694.2,668.5,694.2,624.4z"/>
<ellipse fill="#0069D6" cx="946.464" cy="95.12" rx="28.798" ry="28.474"/>
<path fill="#FFFFFF" d="M953.701,80.399c0,3.993-3.232,7.227-7.226,7.227c-3.994,0-7.227-3.234-7.227-7.227
	c0-3.994,3.232-7.227,7.227-7.227C950.469,73.172,953.701,76.406,953.701,80.399z M952.587,89.582c0.792,0,1.508,0.1,2.144,0.305
	c1.178,0.374,2.087,1.072,2.803,1.869c1.241,1.384,2.263,3.371,3.364,5.358c1.053,1.894,2.268,3.931,2.244,6.479
	c-0.026,2.535-1.241,4.367-2.494,5.732c-1.692,1.85-3.936,4.093-7.351,4.049c-1.72-0.024-3.327-0.99-3.052-2.99
	c0.212-1.545,1.625-2.199,2.492-3.239c-4.256,0.442-6.093-1.713-7.726-4.299c-0.674-1.065-1.104-2.617-2.43-2.866
	c-2.648-0.499-2.33,2.548-1.683,4.236c0.212,0.555,0.917,1.545,0.872,1.994c-0.074,0.767-1.588,1.079-2.43,1.246
	c-1.083,0.212-2.367,0.168-3.177,0.499c0.318,0.672,1.165,0.972,1.868,1.246c0.711,0.274,1.533,0.505,2.368,0.685
	c1.881,0.405,3.899,0.181,5.794,0.374c1.744,0.18,3.737,1.732,2.741,4.049c-0.729,1.695-2.922,2.611-5.295,2.741
	c-4.062,0.224-8.947-1.862-11.028-3.738c-1.72-1.551-3.021-4.068-2.803-7.103c0.212-2.953,1.645-5.855,2.803-8.161
	c1.451-2.885,2.735-5.981,5.296-7.539c0.835-0.511,2.037-0.928,3.427-0.928H952.587z M956.941,101.207
	c0-2.753-2.229-4.983-4.984-4.983c-2.753,0-4.982,2.23-4.982,4.983c0,2.754,2.229,4.984,4.982,4.984
	C954.712,106.191,956.941,103.955,956.941,101.207z"/>
</svg>
